<svg id="Layer_1" data-name="Layer 1" xmlns="http://www.w3.org/2000/svg" viewBox="0 0 645.81 106.4" width="647px" height="108px"><defs><style>.cls-1{stroke:#fff;stroke-miterlimit:10;}</style></defs><title>logo w an i</title><path d="M397.6,2.6c-8.7,3.2-21.3,4.6-46.6,5.3-24,.7-25.8.9-30.5,3.1-2.7,1.3-5.9,2.3-7.1,2.2-3.5-.4-6,3.7-8.3,13.4-3.8,16.4-2.6,18.4,5.7,9.7,10.4-10.8,20.8-14.2,49.7-16.2,16-1.1,28.6-3.8,34-7.1,6.3-3.9,12-12.1,8.3-11.9A26.27,26.27,0,0,0,397.6,2.6Z" transform="translate(0 -1.1)"/><path d="M31.7,24.7c-1.5,1.4-.6,2.9,2.3,4l3,1.1V77.9l-3,1.6c-1.6.9-3,2.2-3,3,0,1.2,2,1.5,10.9,1.5,11.3,0,14.3-1,10.5-3.6-4.7-3.2-4.7-3.4-4-12,1-12.9,4-18.4,10.2-18.4,5,0,5.9,1.9,6.3,15,.3,12.2.4,11.8-4.4,15.8-3.2,2.7-1.5,3.3,9.7,3,9.1-.2,11.3-.6,11.6-1.8.1-.9-.9-2-2.8-2.7l-3-1.1V65.1c0-9.2-.4-14.2-1.4-16.6C71.4,41,61,40.1,52.5,46.6L48,50V24H40.2C35.9,24,32,24.3,31.7,24.7Z" transform="translate(0 -1.1)"/><path d="M347.3,25.1c-15.7,2.6-28.1,11.8-34.7,25.8-2.7,5.8-3.1,7.6-3,15.1.1,14.5,6.5,26.2,18.5,34,9.2,5.9,14.8,7.5,26.4,7.5,9.3,0,10.5-.2,16.6-3.2,7.1-3.5,16.9-11.5,16.9-13.9s-4.1-1.5-7.8,1.7c-5.5,4.9-9.7,6.2-19.3,6.3-7.7,0-9.3-.3-15.2-3.2-12.8-6.4-19-16.9-19.1-32.7-.1-7.6.3-9.8,2.5-14.5,4.2-9.1,11.7-16.1,19.7-18.5l2.2-.6V53.4c0,24.4,0,24.5-2.2,25.7-2.7,1.4-3.9,3-3.2,4.1.3.4,5,.8,10.5.8H366V24l-6.7.1A101.9,101.9,0,0,0,347.3,25.1Z" transform="translate(0 -1.1)"/><path d="M370.7,25.5q-.6,1.5,2.4,3l2.9,1.6-.2,24.1c-.3,22.9-.4,24.1-2.3,25.2-6.2,3.4-3.7,4.7,8.6,4.4,8.3-.2,10.4-.6,10.7-1.8.1-.8-.8-2-2-2.5-2.1-.9-2.3-1.8-2.6-8.7-.5-13.1,3.1-20.8,9.7-20.8,5.1,0,6.1,2.8,6.1,16.1,0,11.3-.1,11.7-2.5,13.3-1.4.9-2.5,2.3-2.5,3.1,0,1.2,2,1.5,10.9,1.5,7.8,0,11.1-.4,11.4-1.3s.6-.9.6,0c.1,2,23.4,1.8,25.1-.2,1-1.2.9-1.6-.6-2.1-6.8-2.1-6.4-1.3-6.4-13.7,0-10.1.2-11.6,2-13.2s2.5-1.7,6-.6c5.7,1.7,8.4-.1,7.5-4.9-1.3-7.1-5.3-8-11.4-2.5L440.3,49l-.6-3-.6-3h-8c-6.3,0-8,.3-8.5,1.6-.8,2.2-.9,2.1,2.4,3.3l3,1v29l-2.9,1.6a6.69,6.69,0,0,1-6,.4L416,78.8V67.7a152,152,0,0,0-.9-15.6c-1.8-9.3-9.8-12.4-19.7-7.6-3,1.5-5.9,3.5-6.2,4.4s-.9-4.3-1.2-11.4l-.5-13-8.1-.3C372.8,24,371.1,24.2,370.7,25.5Z" transform="translate(0 -1.1)"/><path d="M526.7,24.7c-1.5,1.4-.6,2.9,2.3,4l3,1.1V77.9l-3,1.6c-1.6.9-3,2.2-3,3,0,2.2,21.5,2.2,22.4,0,.3-1-.5-2-2.6-3.1l-3.1-1.6.6-8.6c.9-13.3,4-19.2,10.3-19.2,5,0,5.9,1.9,6.3,15,.3,12.2.4,11.8-4.4,15.8-3.2,2.7-1.5,3.3,9.7,3,9.1-.2,11.3-.6,11.6-1.8.1-.9-.9-2-2.8-2.7l-3-1.1V65.1c0-15-1.1-19.1-5.9-21.5-5.4-2.8-13-1.4-18.6,3.6l-3.5,3V24h-7.8C530.9,24,527,24.3,526.7,24.7Z" transform="translate(0 -1.1)"/><path d="M137.6,28.6a3.21,3.21,0,0,0-.4,1.8c.2.1,1.7.8,3.3,1.6l3,1.6.3,20.4c.1,11.3,0,21.4-.2,22.6a6,6,0,0,1-3.1,3.2c-1.4.6-2.5,1.8-2.5,2.7,0,2.2,22.5,2.2,23.4,0q.45-1.5-2.4-3c-3-1.5-3-1.6-3-10.5V60h2.9c2.6,0,3.4,1,9.6,12l6.7,12,17.6-.2c14.9-.3,17.7-.5,18-1.8.1-.9-.9-2-2.8-2.7l-3-1.1V42.9l-8.2.3c-6.8.2-8.3.6-8.6,2-.2,1,.6,1.9,2,2.3a6.47,6.47,0,0,1,3,1.9c.4.6.8,6.9.8,14.1s-.4,13.5-.8,14.1a9.07,9.07,0,0,1-2.9,2.2c-1.9,1.1-2.5.7-5.6-3.1-5.8-7.1-13.1-19.1-11.9-19.5,2.8-.9,6.6-4.9,8.3-8.6,3.6-8,1.4-16.2-5.2-19.8-2.9-1.5-5.8-1.8-20.5-1.8C140.4,27,138.1,27.2,137.6,28.6Zm30.3,5.3c4.7,4.7,3.4,15.8-2.2,19.1a14.85,14.85,0,0,1-6.4,2H156V32h5C164.6,32,166.5,32.5,167.9,33.9Z" transform="translate(0 -1.1)"/><path d="M10.3,33.2C7.5,34.9,7,35.8,7,39.1,7,42.9,6.9,43,3.5,43,.4,43,0,43.3,0,45.5S.4,48,3.5,48H7V62c0,15.7.9,18.9,6,21.5,3.7,1.9,10.3,1.9,14,0,4.1-2.1,3-4.5-2.1-4.5C18.8,79,18,77,18,61.3V48h5.4c3.5,0,5.8-.5,6.6-1.5,2-2.4.2-3.5-6.1-3.5H18V37c0-5.6-.2-6-2.2-5.9A13.1,13.1,0,0,0,10.3,33.2Z" transform="translate(0 -1.1)"/><path d="M93.5,43.2c-11.1,4-16.7,18.1-11.6,29.3C85.5,80.6,93.2,85,103.5,85c6.2,0,9.3-1.6,11.8-5.8,2.8-4.8,1-6-3.8-2.8s-10.2,3.4-14,.4C94.6,74.5,92,69.4,92,66c0-1.9.6-2,12.4-2,14.1,0,14.4-.2,13.1-7.9C115.7,45.3,104.6,39.3,93.5,43.2Zm11.9,5.4a10.13,10.13,0,0,1,2.4,8.1c-.3,1.5-1.5,1.8-8.1,2.1-7.3.3-7.7.2-7.7-1.8,0-2.4,1.5-5.6,3.8-8.3C97.7,46.6,103.3,46.5,105.4,48.6Z" transform="translate(0 -1.1)"/><path d="M226,42.9c-10.3,3.2-16,10.5-16,20.6,0,7.2,1.7,11.1,6.8,15.7,4.5,4.1,9.3,5.8,16.3,5.8s10.3-1.6,12.3-5.7c2.3-4.9.8-6.1-3.9-2.9-6.8,4.6-14.3,2.8-18-4.4-.9-1.6-1.5-5.6-1.5-9,0-9.6,4.7-16,11.7-16,2.8,0,4.3.8,6.8,3.6,1.9,2,3.8,3.3,4.4,2.9s1.1-2.6,1.1-5c0-4.2-.1-4.4-3.7-5.4C238,41.9,229.7,41.8,226,42.9Z" transform="translate(0 -1.1)"/><path d="M260,43.3c-10.4,3.3-16.1,18.2-11.1,29.2,3.6,8.1,11.3,12.5,21.6,12.5,6.2,0,9.3-1.6,11.8-5.8,2.8-4.8,1-6.1-3.9-2.8-4.2,2.8-8.7,3.3-12.9,1.4-3-1.4-6.5-7.4-6.5-11.3V64h12.5c12.3,0,12.5,0,13.1-2.4.7-3-1.2-10.3-3.7-13.7C277.3,42.8,268,40.8,260,43.3ZM272.5,49a10.44,10.44,0,0,1,1.9,5.7l.1,3.8-7.7.3c-7.4.3-7.8.2-7.8-1.8,0-2.4,1.5-5.6,3.8-8.3C264.9,46.4,270.2,46.5,272.5,49Z" transform="translate(0 -1.1)"/><path d="M469.5,43.2a20.43,20.43,0,0,0-11.7,10.6c-2.9,6.4-2.2,16.4,1.4,21.9s11.3,9.3,18.7,9.2c8.4-.1,10.3-1,12.9-5.7,2-3.6,2.1-4.3.8-4.8-.9-.4-2.9.5-4.7,2-7.4,6.3-18.9.3-18.9-9.8V64h12c10.8,0,12-.2,13-2,1.3-2.5-.3-10.2-3-14C486.4,42.9,476.7,40.7,469.5,43.2Zm11.7,5.5c1.9,2.2,3,6.6,2.2,8.7-.5,1.3-2.2,1.6-8,1.6H468V56.1c0-4.4,4.4-9.1,8.4-9.1A7.47,7.47,0,0,1,481.2,48.7Z" transform="translate(0 -1.1)"/><path d="M503,44.2c-3.4,1.7-4.8,3.2-5.6,5.8-1.8,5.4.1,8.6,9.2,15.5,6.5,5,8,6.6,8.2,9.2.2,2.3-.3,3.5-2,4.7-4.7,3.3-10.7.6-12.8-6-1.7-5.1-3.5-3.7-3.5,2.7,0,5.2.1,5.5,3.5,7.1,4.3,2.2,13.7,2.4,18.4.4,7.1-3,9.6-10.6,5.7-17-1.1-1.7-5.1-5.6-9-8.6-8-6.2-9.2-9.3-4.4-11.1,3.4-1.3,6.5,0,8.9,3.6,2.6,4,4.4,3.2,4.4-1.9,0-2.5-.5-4.8-1.2-5.2s-4.3-.9-8.2-1.1C508.6,41.9,506.8,42.2,503,44.2Z" transform="translate(0 -1.1)"/><path d="M586.6,43.5c-8.6,3-13.1,11-12.4,21.8.5,8.5,3.7,13.5,10.9,17.1a20.92,20.92,0,0,0,10.8,2.5c8.4-.1,10.3-1,12.9-5.7,2-3.6,2.1-4.3.8-4.8-.9-.4-2.9.5-4.7,2C597.5,82.7,586,77,586,67V64h12c13.6,0,14.4-.4,13.1-7.6C608.9,44.8,598.5,39.2,586.6,43.5Zm12.8,5.7a11.81,11.81,0,0,1,1.6,6V59H586V56.2c0-2.6,2.2-6.9,4.4-8.4C592.8,46.2,597.9,47,599.4,49.2Z" transform="translate(0 -1.1)"/><path d="M634.1,45.5,630.3,49l-.6-3-.6-3h-8c-5.9,0-8,.4-8.4,1.4-.6,1.5.6,2.9,3.6,3.9,1.6.6,1.7,2,1.5,15.3-.3,13.5-.5,14.8-2.3,15.8-2.1,1.2-3.5,2.6-3.5,3.8,0,.5,5.3.8,11.9.8,9.3,0,12.1-.3,13.1-1.5s1-1.6-.1-2c-.8-.2-2.6-.9-4.1-1.4L630,78V67.2c0-8.1.4-11.3,1.6-13,1.7-2.4,4.4-2.8,7.6-1.1a4.11,4.11,0,0,0,4.5-.2c2.1-1.1,2.4-1.9,1.9-4.7C644.5,41,640.2,40,634.1,45.5Z" transform="translate(0 -1.1)"/><circle class="cls-1" cx="198" cy="31.9" r="6"/></svg>